<svg xmlns="http://www.w3.org/2000/svg" xmlns:xlink="http://www.w3.org/1999/xlink" id="Layer_1" x="0px" y="0px" viewBox="0 0 184.9 235.1" style="enable-background:new 0 0 184.9 235.1;" xml:space="preserve"><style type="text/css">	.st0{opacity:0.3;}	.st1{fill:#FFFFFF;}</style><g class="st0">	<g>		<g>			<g>				<g>					<path class="st1" d="M0.7,235.1l0-142.7c0-12.2,2.3-24,7-35.1C12.3,46.2,19,36.2,27.6,27.6C36.2,19,46.2,12.3,57.3,7.7      c11.1-4.6,23-7,35.1-7c12.2,0,24,2.3,35.1,7c11.1,4.6,21.1,11.3,29.7,19.9c8.6,8.6,15.3,18.6,19.9,29.7c4.6,11.1,7,23,7,35.1      l0,142.7h0.7l0-142.7c0-12.2-2.4-24.1-7-35.4c-4.7-11.2-11.4-21.3-20.1-30c-8.7-8.7-18.7-15.4-30-20.1c-11.2-4.7-23.1-7-35.4-7      C80.2,0,68.3,2.4,57,7c-11.2,4.7-21.3,11.4-30,20.1C18.4,35.7,11.7,45.8,7,57C2.4,68.3,0,80.2,0,92.4l0,142.7H0.7z"></path>				</g>			</g>		</g>	</g>	<g>		<g>			<g>				<g>					<path class="st1" d="M4.6,235.1l0-141.5c0-5.9,0.6-12.3,1.5-17.3c1.1-5.8,2.7-11.5,4.9-17c4.4-10.9,10.9-20.7,19.3-29h0      c8.2-8.2,17.8-14.6,28.5-19.1c10.7-4.4,22-6.7,33.6-6.7c11.6,0,23,2.2,33.6,6.7c10.7,4.4,20.3,10.8,28.5,19.1      c8.4,8.4,14.9,18.1,19.3,29c2.2,5.5,3.9,11.2,4.9,17c1,5,1.5,11.4,1.5,17.3l0,141.5h0.7l0-141.5c0-5.9-0.6-12.4-1.6-17.4      c-1.1-5.8-2.7-11.6-5-17.1c-4.4-11-11-20.8-19.4-29.3c-8.3-8.3-18-14.8-28.7-19.2c-10.8-4.5-22.2-6.7-33.9-6.7      c-11.7,0-23.1,2.3-33.9,6.7C47.8,15,38.1,21.5,29.8,29.8c-8.4,8.4-15,18.3-19.4,29.3c-2.2,5.5-3.9,11.3-5,17.1      c-1,5-1.6,11.5-1.6,17.4l0,141.5H4.6z"></path>				</g>			</g>		</g>	</g>	<g>		<g>			<g>				<g>					<path class="st1" d="M8.4,235.1l0-140.3c0-4.7,0.4-11.9,1.4-16.8c0.9-5.6,2.5-11.2,4.6-16.6C18.6,50.7,24.9,41.2,33,33      c7.9-7.9,17-14,27.2-18.2c10.2-4.2,21-6.4,32.2-6.4c11.1,0,22,2.1,32.2,6.4C134.8,19,144,25.1,151.8,33      c8.2,8.2,14.4,17.7,18.6,28.3c2.1,5.4,3.7,10.9,4.6,16.6c1,4.9,1.4,12.1,1.4,16.8l0,140.3h0.7l0-140.3c0-4.7-0.4-12-1.4-17      c-1-5.7-2.5-11.3-4.6-16.7c-4.2-10.7-10.5-20.4-18.8-28.6c-7.9-7.9-17.2-14.1-27.5-18.4c-10.3-4.3-21.2-6.4-32.4-6.4      c-11.2,0-22.1,2.2-32.4,6.4c-10.3,4.3-19.5,10.5-27.5,18.4C24.3,40.7,18,50.4,13.7,61.1c-2.1,5.4-3.7,11-4.6,16.7      c-1,4.9-1.4,12.3-1.4,17l0,140.3H8.4z"></path>				</g>			</g>		</g>	</g>	<g>		<g>			<g>				<g>					<path class="st1" d="M12.2,235.1l0-139.2c0-4.1,0.4-12.1,1.2-16.4l0,0c0.8-5.5,2.3-10.9,4.3-16.2c4-10.4,10-19.7,18-27.7      c7.5-7.5,16.3-13.4,26-17.4c9.7-4,20.1-6.1,30.7-6.1c10.6,0,21,2,30.7,6.1c9.7,4,18.5,9.9,26,17.4c7.9,7.9,14,17.2,18,27.7      c2,5.2,3.4,10.7,4.3,16.2l0,0c0.8,4.3,1.2,12.3,1.2,16.4l0,139.2h0.7l0-139.2c0-4.2-0.4-12.1-1.2-16.5      c-0.8-5.6-2.3-11-4.3-16.3c-4-10.5-10.1-19.9-18.1-27.9c-7.6-7.6-16.4-13.5-26.2-17.6c-9.8-4.1-20.2-6.1-31-6.1      c-10.7,0-21.1,2.1-31,6.1c-9.8,4.1-18.7,10-26.2,17.6c-8,8-14.1,17.4-18.1,27.9c-2,5.3-3.5,10.8-4.3,16.3      c-0.9,4.4-1.2,12.3-1.2,16.5l0,139.2H12.2z"></path>				</g>			</g>		</g>	</g>	<g>		<g>			<g>				<g>					<path class="st1" d="M16.1,235.1l0-138c0-3.7,0.4-12.2,1.1-15.9l0,0c0.7-5.4,2.1-10.7,4-15.8c3.8-10.2,9.6-19.2,17.3-27      c7.2-7.2,15.5-12.7,24.8-16.6c9.3-3.8,19.1-5.8,29.2-5.8c10.1,0,20,1.9,29.2,5.8c9.3,3.8,17.6,9.4,24.8,16.6      c7.7,7.7,13.6,16.8,17.3,27c1.9,5.1,3.2,10.4,4,15.8l0,0c0.7,3.7,1.1,12.2,1.1,15.9l0,138h0.7l0-138c0-3.8-0.4-12.3-1.1-16.1      c-0.7-5.4-2.1-10.8-4-15.9c-3.8-10.3-9.7-19.4-17.5-27.2c-7.2-7.2-15.6-12.9-25-16.7c-9.4-3.9-19.3-5.8-29.5-5.8      c-10.2,0-20.1,2-29.5,5.8c-9.4,3.9-17.8,9.5-25,16.7c-7.8,7.8-13.7,17-17.5,27.2c-1.9,5.1-3.2,10.5-4,15.9      c-0.7,3.7-1.1,12.3-1.1,16.1l0,138H16.1z"></path>				</g>			</g>		</g>	</g>	<g>		<g>			<g>				<g>					<path class="st1" d="M19.9,235.1l0-136.8c0-3.2,0.3-12.4,0.9-15.5l0,0c0.6-5.2,1.9-10.4,3.6-15.3c3.6-9.9,9.2-18.7,16.7-26.3      c6.8-6.8,14.7-12.1,23.5-15.7c8.8-3.6,18.1-5.5,27.8-5.5c9.6,0,19,1.8,27.8,5.5c8.8,3.6,16.7,8.9,23.5,15.7      c7.5,7.5,13.1,16.3,16.7,26.3c1.8,5,3,10.1,3.6,15.3l0,0c0.6,3.1,0.9,12.3,0.9,15.5l0,136.8h0.7l0-136.8c0-3-0.3-12.3-0.9-15.6      c-0.6-5.3-1.9-10.5-3.7-15.5c-3.6-10-9.3-18.9-16.8-26.5c-6.9-6.9-14.9-12.2-23.7-15.9c-8.9-3.7-18.3-5.5-28-5.5      c-9.7,0-19.1,1.9-28,5.5c-8.9,3.7-16.9,9-23.7,15.9c-7.6,7.6-13.3,16.5-16.8,26.5c-1.8,5-3,10.2-3.7,15.5      c-0.6,3.3-0.9,12.6-0.9,15.6l0,136.8H19.9z"></path>				</g>			</g>		</g>	</g>	<g>		<g>			<g>				<g>					<path class="st1" d="M23.8,235.1l0-135.7c0-2.9,0.3-12.4,0.8-15l0,0c0.5-5.1,1.6-10.1,3.3-14.9c3.3-9.7,8.7-18.3,16-25.6      c6.4-6.4,13.9-11.5,22.3-14.9c8.3-3.5,17.2-5.2,26.3-5.2c9.1,0,18,1.8,26.3,5.2c8.3,3.5,15.8,8.5,22.3,14.9      c7.3,7.3,12.7,15.9,16,25.6c1.7,4.8,2.8,9.9,3.3,14.9l0,0c0.5,2.6,0.8,12.2,0.8,15l0,135.7h0.7l0-135.7      c0-2.9-0.3-12.5-0.8-15.2c-0.5-5.1-1.7-10.2-3.3-15.1c-3.4-9.8-8.8-18.5-16.2-25.8c-6.5-6.5-14.1-11.6-22.5-15.1      S101.6,23,92.4,23c-9.2,0-18.1,1.8-26.6,5.3c-8.4,3.5-16,8.6-22.5,15.1C36,50.7,30.5,59.4,27.2,69.2c-1.7,4.9-2.8,10-3.3,15.1      C23.3,86.9,23,96.6,23,99.4l0,135.7H23.8z"></path>				</g>			</g>		</g>	</g>	<g>		<g>			<g>				<g>					<path class="st1" d="M27.6,235.1l0-134.5c0-2.2,0.2-12.5,0.6-14.6l0,0c0.4-4.9,1.4-9.8,3-14.5c3.1-9.4,8.3-17.8,15.4-24.9      c6.1-6.1,13.2-10.8,21-14.1c7.9-3.3,16.2-4.9,24.8-4.9c8.6,0,17,1.7,24.8,4.9c7.9,3.3,14.9,8,21,14.1      c7.1,7.1,12.3,15.5,15.4,24.9c1.6,4.7,2.6,9.6,3,14.5l0,0c0.4,2.1,0.6,12.4,0.6,14.6l0,134.5h0.7l0-134.5      c0-2.2-0.2-12.5-0.6-14.7c-0.4-5-1.4-9.9-3-14.7c-3.2-9.5-8.4-18-15.6-25.2c-6.2-6.2-13.3-10.9-21.3-14.2c-8-3.3-16.4-5-25.1-5      c-8.7,0-17.1,1.7-25.1,5c-8,3.3-15.1,8.1-21.3,14.2c-7.2,7.2-12.4,15.6-15.6,25.2c-1.6,4.7-2.6,9.7-3,14.7      c-0.4,2.2-0.6,12.5-0.6,14.7l0,134.5H27.6z"></path>				</g>			</g>		</g>	</g>	<g>		<g>			<g>				<g>					<path class="st1" d="M31.4,235.1l0-133.3c0-1.8,0.2-12.6,0.5-14.1l0,0c0.3-4.8,1.2-9.6,2.7-14.1c2.9-9.2,7.9-17.3,14.7-24.2      c5.7-5.7,12.4-10.2,19.8-13.2c7.4-3.1,15.3-4.6,23.3-4.6c8.1,0,16,1.6,23.3,4.6c7.4,3.1,14,7.5,19.8,13.2      c6.9,6.9,11.8,15,14.7,24.2c1.4,4.6,2.3,9.3,2.7,14.1l0,0c0.3,1.5,0.5,12.3,0.5,14.1l0,133.3h0.7l0-133.3      c0-1.4-0.1-12.5-0.5-14.3c-0.3-4.9-1.2-9.7-2.7-14.3c-2.9-9.3-8-17.5-14.9-24.5c-5.8-5.8-12.5-10.3-20-13.4      c-7.5-3.1-15.4-4.7-23.6-4.7c-8.2,0-16.1,1.6-23.6,4.7c-7.5,3.1-14.2,7.6-20,13.4h0c-7,7-12,15.2-14.9,24.5      c-1.5,4.6-2.4,9.4-2.7,14.3c-0.3,1.8-0.5,12.8-0.5,14.3l0,133.3H31.4z"></path>				</g>			</g>		</g>	</g>	<g>		<g>			<g>				<g>					<path class="st1" d="M35.3,235.1l0-132.1c0-1.6,0.1-12.7,0.3-13.7l0-0.1c0.2-4.7,1-9.3,2.3-13.7C40.6,66.7,45.5,58.6,52,52      c5.4-5.4,11.6-9.5,18.5-12.4c6.9-2.9,14.3-4.3,21.9-4.3c7.6,0,14.9,1.5,21.9,4.3c6.9,2.9,13.2,7,18.5,12.4      c6.6,6.6,11.4,14.7,14.1,23.5c1.3,4.4,2.1,9.1,2.3,13.7l0,0.1c0.2,1,0.3,12.1,0.3,13.7l0,132.1h0.7l0-132.1      c0-0.8-0.1-12.5-0.3-13.8c-0.2-4.7-1-9.4-2.4-13.9c-2.7-8.9-7.6-17.1-14.3-23.8c-5.4-5.4-11.7-9.7-18.8-12.6      c-7-2.9-14.5-4.4-22.2-4.4c-7.7,0-15.1,1.5-22.2,4.4c-7,2.9-13.3,7.1-18.8,12.6c-6.6,6.6-11.6,14.9-14.3,23.8      c-1.4,4.5-2.2,9.2-2.4,13.9c-0.2,1.3-0.3,13-0.3,13.8l0,132.1H35.3z"></path>				</g>			</g>		</g>	</g>	<g>		<g>			<g>				<g>					<path class="st1" d="M39.1,235.1l0-131c0-1.1,0.1-12.7,0.1-13.2l0-0.1c0.1-4.5,0.8-9,2-13.3c2.4-8.5,7.1-16.4,13.4-22.8      c5-5,10.8-8.9,17.3-11.6c6.5-2.7,13.3-4,20.4-4c7.1,0,13.9,1.4,20.4,4c6.5,2.7,12.3,6.6,17.3,11.6c6.4,6.4,11,14.2,13.4,22.8      c1.2,4.3,1.9,8.8,2,13.3l0,0.1c0.1,0.6,0.1,12.2,0.1,13.2l0,131h0.7l0-131c0-0.1,0-12.3-0.2-13.3c-0.1-4.6-0.8-9.1-2-13.5      c-2.5-8.7-7.2-16.6-13.6-23.1c-5.1-5.1-11-9-17.5-11.7c-6.5-2.7-13.5-4.1-20.7-4.1c-7.2,0-14.1,1.4-20.7,4.1      c-6.5,2.7-12.4,6.7-17.5,11.7c-6.4,6.4-11.2,14.4-13.6,23.1c-1.2,4.4-1.9,8.9-2,13.5c-0.1,1-0.2,13.2-0.2,13.3l0,131H39.1z"></path>				</g>			</g>		</g>	</g>	<g>		<g>			<g>				<g>					<path class="st1" d="M43,235.1l0-142.7c0-13.2,5.1-25.6,14.5-35c9.3-9.3,21.8-14.5,35-14.5c13.2,0,25.6,5.1,35,14.5      c9.3,9.3,14.5,21.8,14.5,35l0,142.7h0.7l0-142.7c0-13.4-5.2-26-14.7-35.5c-9.5-9.5-22.1-14.7-35.5-14.7      c-13.4,0-26,5.2-35.5,14.7C47.5,66.4,42.2,79,42.2,92.4l0,142.7H43z"></path>				</g>			</g>		</g>	</g></g></svg>