<svg xmlns="http://www.w3.org/2000/svg" xmlns:xlink="http://www.w3.org/1999/xlink" id="Layer_1" x="0px" y="0px" viewBox="0 0 116.8 77.6" style="enable-background:new 0 0 116.8 77.6;" xml:space="preserve"><style type="text/css">	.st0{fill:#FFFFFF;}</style><rect x="80.9" y="73.7" class="st0" width="25.3" height="3.4"></rect><g>	<g>		<path class="st0" d="M15.3,65.9l-1.7,11.3H9.8l5.8-35.4H21L27,77.2h-3.9l-1.8-11.3H15.3z M20.8,62.4c-1.2-7.8-2.1-13.8-2.5-17.2   h-0.2C18,48,16.8,56,15.8,62.4H20.8z"></path>		<path class="st0" d="M32.5,41.8v35.4h-3.8V41.8H32.5z"></path>		<path class="st0" d="M38,67.2v2.1c0,3.3,1.2,5.1,3.6,5.1c2.5,0,3.5-1.8,3.5-5.7c0-4.1-0.9-5.7-4.6-8.6c-3.8-3-5.7-4.7-5.7-10   c0-4.5,1.3-8.8,6.9-8.8c5.3,0,6.7,3.5,6.7,8V51h-3.7v-1.5c0-2.9-0.6-4.8-3-4.8c-2.4,0-3.1,2.1-3.1,4.9c0,3.3,0.7,4.5,3.9,7   c4.9,3.7,6.5,5.8,6.5,11.7c0,5-1.4,9.5-7.4,9.5c-5.7,0-7.3-3.7-7.3-8.4v-2H38z"></path>		<path class="st0" d="M51.5,41.8h3.8v32h8.9l-0.4,3.4H51.5V41.8z"></path>		<path class="st0" d="M77.1,60h-7.9v13.7h8.4v3.5l-12.1,0V41.8h12.1v3.5h-8.4v11.3h7.9V60z"></path>	</g></g><g>	<g>		<path class="st0" d="M12.3,35.8V0.6h1.3c2,6.8,9.3,31.9,9.7,33.9h0.1c-0.2-5.6-0.1-9.8-0.1-15.6V0.6h0.9v35.3h-1.3   c-1.6-5.4-9.4-32.4-9.8-34.2h-0.1c0.1,4.2,0.2,10,0.2,16.5v17.7H12.3z"></path>		<path class="st0" d="M30,21.5l-2.3,14.3h-0.9l5.8-35.3h1.2l6,35.3h-0.9l-2.4-14.3H30z M36.3,20.7c-2.2-12.9-2.9-17-3.1-19.3h-0.1   c-0.3,2.7-1.5,9.9-3,19.3H36.3z"></path>		<path class="st0" d="M43.2,17.8v18.1h-0.9V0.6h4.2c4.6,0,6,2.4,6,7.5v1.5c0,5.6-1.4,7.2-3.9,7.8c2.7,0.8,3.7,3,3.7,6.8   c0,3.1,0.1,9.6,0.4,11.6h-0.9c-0.3-1.4-0.3-9-0.4-11.8c-0.1-4.9-1.8-6.2-5.4-6.2H43.2z M43.2,17h2.9c4.2,0,5.5-2,5.5-7.4V8.1   c0-3.8-0.6-6.7-5.1-6.7h-3.2V17z"></path>		<path class="st0" d="M57.7,17.8v18.1h-0.9V0.6H61c4.6,0,6,2.4,6,7.5v1.5c0,5.6-1.4,7.2-3.9,7.8c2.7,0.8,3.7,3,3.7,6.8   c0,3.1,0.1,9.6,0.4,11.6h-0.9c-0.3-1.4-0.3-9-0.4-11.8c-0.1-4.9-1.8-6.2-5.4-6.2H57.7z M57.7,17h2.9c4.2,0,5.5-2,5.5-7.4V8.1   c0-3.8-0.6-6.7-5.1-6.7h-3.2V17z"></path>		<path class="st0" d="M81.8,8.1v19.9c0,5.4-1.4,8.4-5.7,8.4c-3.7,0-5.7-2.1-5.7-8.3V8.1c0-6.5,2.8-8,5.8-8   C79.2,0.1,81.8,1.6,81.8,8.1z M71.3,8.4v19.3c0,5,1.2,7.8,4.8,7.8c4.2,0,4.8-3.6,4.8-7.4V8.4c0-4.7-1.2-7.5-4.8-7.5   C73.1,0.9,71.3,2.9,71.3,8.4z"></path>		<path class="st0" d="M88.2,35.8L83.1,0.6H84c1.6,10.6,4.8,32.2,4.8,34.4h0.1c0.4-3.7,3.4-23.9,4.9-34.4H95   c1.4,9.8,4.6,30.5,4.9,34.4h0.1c0.1-2,3.7-23.7,5.5-34.4h0.9l-5.8,35.3h-1.3c-1.4-10.2-4.6-31.3-4.9-34.4h-0.1   c-0.2,3.1-3.4,24.7-4.9,34.4H88.2z"></path>	</g></g><rect class="st0" width="2.1" height="77.2"></rect><rect x="114.7" class="st0" width="2.1" height="77.2"></rect></svg>